<svg width="70" height="70" viewBox="0 0 70 70" fill="none" xmlns="http://www.w3.org/2000/svg">
<rect width="70" height="70" rx="20" fill="white"/>
<path d="M59.4329 20.4405V50.986H52.5124L41.4755 34.9377H41.2965V50.986H33.0039V20.4405H40.0437L50.9016 36.4291H51.1403V20.4405H59.4329Z" fill="url(#paint0_linear_4214_19)"/>
<path d="M35.4858 38.6049H27.0739C27.0142 39.301 26.8551 39.9324 26.5966 40.4991C26.348 41.0659 26 41.5531 25.5526 41.9608C25.1151 42.3784 24.5831 42.6966 23.9567 42.9153C23.3303 43.144 22.6193 43.2584 21.8239 43.2584C20.4318 43.2584 19.2536 42.9203 18.2891 42.2442C17.3345 41.568 16.6087 40.5986 16.1115 39.3358C15.6243 38.073 15.3807 36.5567 15.3807 34.7868C15.3807 32.9174 15.6293 31.3514 16.1264 30.0886C16.6335 28.8358 17.3643 27.8912 18.3189 27.2548C19.2734 26.6284 20.4219 26.3152 21.7642 26.3152C22.5298 26.3152 23.2159 26.4096 23.8224 26.5986C24.429 26.7974 24.956 27.0808 25.4034 27.4487C25.8509 27.8166 26.2138 28.2591 26.4922 28.7761C26.7805 29.3031 26.9744 29.8947 27.0739 30.551L35.4858 30.4913C35.3864 29.1987 35.0234 27.8812 34.397 26.5389C33.7706 25.2065 32.8807 23.9736 31.7273 22.84C30.5838 21.7165 29.1669 20.8116 27.4766 20.1255C25.7862 19.4395 23.8224 19.0964 21.5852 19.0964C18.7813 19.0964 16.2656 19.698 14.0384 20.9011C11.821 22.1042 10.0661 23.8741 8.77344 26.2108C7.49077 28.5474 6.84943 31.4061 6.84943 34.7868C6.84943 38.1873 7.50568 41.051 8.81818 43.3777C10.1307 45.7143 11.9006 47.4792 14.1278 48.6724C16.3551 49.8755 18.8409 50.4771 21.5852 50.4771C23.5142 50.4771 25.2891 50.2136 26.9098 49.6866C28.5305 49.1596 29.9524 48.389 31.1754 47.3748C32.3984 46.3706 33.3828 45.1326 34.1286 43.6611C34.8743 42.1895 35.3267 40.5041 35.4858 38.6049Z" fill="url(#paint1_linear_4214_19)"/>
<defs>
<linearGradient id="paint0_linear_4214_19" x1="47.2992" y1="9.98596" x2="47.2992" y2="63.5" gradientUnits="userSpaceOnUse">
<stop stop-color="#448AFF"/>
<stop offset="1" stop-color="#785CFF"/>
</linearGradient>
<linearGradient id="paint1_linear_4214_19" x1="21.7887" y1="60.514" x2="21.7887" y2="6.99995" gradientUnits="userSpaceOnUse">
<stop stop-color="#448AFF"/>
<stop offset="1" stop-color="#785CFF"/>
</linearGradient>
</defs>
</svg>
